<?xml version="1.0" encoding="UTF-8"?>
<svg id="_レイヤー_2" data-name="レイヤー 2" xmlns="http://www.w3.org/2000/svg" viewBox="0 0 500 500">
  <defs>
    <style>
      .cls-1 {
        fill: #666;
        stroke-width: 0px;
      }
    </style>
  </defs>
  <g id="_レイヤー_1-2" data-name="レイヤー 1">
    <path class="cls-1" d="M250,0C111.93,0,0,111.93,0,250s111.93,250,250,250,250-111.93,250-250S388.07,0,250,0ZM348.12,274.61l-125.49,125.49c-12.6,12.6-33.03,12.6-45.63,0-12.6-12.6-12.6-33.03,0-45.63l104.47-104.47-104.47-104.47c-12.6-12.6-12.6-33.03,0-45.63,12.6-12.6,33.03-12.6,45.63,0l125.49,125.49c6.76,6.76,9.77,15.76,9.28,24.61.49,8.85-2.52,17.85-9.28,24.61Z"/>
  </g>
</svg>